<svg width="24" height="24" viewBox="0 0 128 128" fill="none" xmlns="http://www.w3.org/2000/svg"><rect width="128" height="128" fill="#171717"></rect><path fill-rule="evenodd" clip-rule="evenodd" d="M43.7296 61.9069C44.3266 63.0749 44.3129 64.4614 43.6931 65.6175L27.1201 96.5275C26.7629 97.1936 27.2455 98 28.0014 98H45.6633C48.7179 98 51.5058 96.2606 52.8487 93.5171L58.8911 81.1725V80.2078H52.7847C52.5937 80.2074 52.4071 80.1285 52.2484 79.9809C52.0897 79.8333 51.966 79.6236 51.893 79.3784C51.82 79.1332 51.801 78.8634 51.8383 78.6032C51.8756 78.3429 51.9675 78.1039 52.1026 77.9162L62.5907 63.3441C62.9531 62.8407 63.4445 62.558 63.9569 62.558C64.4693 62.558 64.9607 62.8407 65.3231 63.3441L75.8122 77.9162C75.9473 78.104 76.0393 78.3433 76.0765 78.6038C76.1138 78.8643 76.0946 79.1343 76.0213 79.3796C75.9481 79.625 75.8241 79.8346 75.6651 79.982C75.5061 80.1294 75.3192 80.208 75.1281 80.2078H69.0369L75.5515 93.5171C76.8944 96.2606 79.6823 98 82.7369 98H100.405C101.16 98 101.642 97.1965 101.288 96.5304L84.8385 65.6054C84.227 64.4558 84.2134 63.0806 84.8018 61.9191L99.7318 32.452C100.069 31.7868 99.5855 31 98.8398 31H77.0687C76.6818 31 76.3295 31.2233 76.1644 31.5732L64.2001 56.9261L52.3802 31.5774C52.216 31.2252 51.8625 31 51.4739 31H29.5669C28.8196 31 28.3364 31.7897 28.6764 32.4551L43.7296 61.9069Z" fill="white"></path></svg>